<?xml version="1.0" encoding="UTF-8" standalone="no" ?>
<!DOCTYPE svg PUBLIC "-//W3C//DTD SVG 1.1//EN" "http://www.w3.org/Graphics/SVG/1.1/DTD/svg11.dtd">
<svg xmlns="http://www.w3.org/2000/svg" xmlns:xlink="http://www.w3.org/1999/xlink" version="1.1" width="500" height="500" viewBox="0 0 500 500" xml:space="preserve">
<desc>Created with Fabric.js 4.5.0</desc>
<defs>
</defs>
<g transform="matrix(1 0 0 1 250 270)"  >
<polygon style="stroke: rgb(244,209,158); stroke-width: 1; stroke-dasharray: none; stroke-linecap: butt; stroke-dashoffset: 0; stroke-linejoin: miter; stroke-miterlimit: 4; fill: rgb(244,209,158); fill-rule: nonzero; opacity: 1;"  points="153.88,-135 153.88,79.83 98.69,135 -55.66,135 -153.88,54.09 -153.88,-135 153.88,-135 " />
</g>
<g transform="matrix(1 0 0 1 239.68 249.39)"  >
<path style="stroke: rgb(53,44,33); stroke-width: 1; stroke-dasharray: none; stroke-linecap: butt; stroke-dashoffset: 0; stroke-linejoin: miter; stroke-miterlimit: 4; fill: rgb(53,44,33); fill-rule: nonzero; opacity: 1;"  transform=" translate(-239.68, -229.39)" d="M 431 183 L 312.16 183 L 292 133 L 292 183 L 153 183 C 113.69 267.47 144.33 382 155.41 417.24 C 155.86387621931374 418.6958849313535 155.3228472231557 420.27807069611674 154.07255835318466 421.15121575704717 C 152.8222694832136 422.02436081797754 151.15054503623537 421.9874617356239 149.94 421.06 L 48 343 C 48 343 36 122 74 85 C 124.18 36.14 233.85 37 286 37 C 352 37 411.57 52.22 418 62 C 441 97 431 183 431 183 Z" stroke-linecap="round" />
</g>
<g transform="matrix(1 0 0 1 305 241.24)"  >
<g style=""   >
		<g transform="matrix(1 0 0 1 -47.66 0)"  >
<path style="stroke: rgb(198,143,70); stroke-width: 1; stroke-dasharray: none; stroke-linecap: butt; stroke-dashoffset: 0; stroke-linejoin: miter; stroke-miterlimit: 4; fill: rgb(198,143,70); fill-rule: nonzero; opacity: 1;"  transform=" translate(-257.34, -221.23)" d="M 272.68 237.25 C 269.62441188558756 237.2500463485346 266.8967926565201 235.33431378149163 265.86 232.46 C 261.7 220.95000000000002 258.39 219.72 258.36 219.72 C 256.48 219.87 251.52 226.06 248.69000000000003 232.8 C 247.14636412422297 236.494784976368 242.89978497636804 238.23863587577708 239.20500000000004 236.695 C 235.510215023632 235.15136412422294 233.76636412422297 230.904784976368 235.31000000000003 227.21 C 236.85000000000002 223.52 245.15000000000003 205.21 258.39000000000004 205.21 L 258.74000000000007 205.21 C 271.55000000000007 205.52 277.5300000000001 222.08 279.50000000000006 227.53 C 280.3013651358247 229.75163499872156 279.9703753956562 232.22436304185737 278.61293181344763 234.15702831799305 C 277.25548823123904 236.0896935941287 275.0417468423133 237.24003582423418 272.68000000000006 237.24 Z" stroke-linecap="round" />
</g>
		<g transform="matrix(1 0 0 1 47.66 0)"  >
<path style="stroke: rgb(198,143,70); stroke-width: 1; stroke-dasharray: none; stroke-linecap: butt; stroke-dashoffset: 0; stroke-linejoin: miter; stroke-miterlimit: 4; fill: rgb(198,143,70); fill-rule: nonzero; opacity: 1;"  transform=" translate(-352.66, -221.23)" d="M 368 237.25 C 364.94441188558756 237.2500463485346 362.2167926565201 235.33431378149163 361.18 232.46 C 357.02 220.95000000000002 353.71 219.72 353.68 219.72 C 351.8 219.87 346.84000000000003 226.06 344.01 232.8 C 342.46636412422293 236.494784976368 338.219784976368 238.23863587577708 334.525 236.695 C 330.830215023632 235.15136412422294 329.08636412422294 230.904784976368 330.63 227.21 C 332.17 223.51000000000002 340.46999999999997 205.21 353.71 205.21 L 354.06 205.21 C 366.87 205.52 372.85 222.08 374.82 227.53 C 375.62136513582465 229.75163499872156 375.29037539565616 232.22436304185737 373.93293181344757 234.15702831799305 C 372.575488231239 236.0896935941287 370.3617468423132 237.24003582423418 368 237.24 Z" stroke-linecap="round" />
</g>
</g>
</g>
<g transform="matrix(1 0 0 1 295.67 330.33)"  >
<path style="stroke: rgb(198,143,70); stroke-width: 1; stroke-dasharray: none; stroke-linecap: butt; stroke-dashoffset: 0; stroke-linejoin: miter; stroke-miterlimit: 4; fill: rgb(198,143,70); fill-rule: nonzero; opacity: 1;"  transform=" translate(-295.68, -310.33)" d="M 300.61 331.66 C 297.66377111763177 331.6558972709334 294.72320993670803 331.40165079795247 291.82 330.90000000000003 C 263.31 326.01000000000005 249.72 313.33000000000004 243.69 304.99 C 242.43121670938862 303.26620969794646 242.06909974107057 301.0457927425291 242.71497615996262 299.0113807808813 C 243.36085257885466 296.9769688192336 244.93742445358257 295.3720385159288 246.96 294.69 L 246.96 294.69 C 249.68253376149354 293.7727168885775 252.686641029588 294.69891618034933 254.42000000000002 296.99 C 258.69 302.68 269.56 312.88 294.18 317.1 C 322.52 321.97 335.47 293.46000000000004 335.6 293.17 C 336.40487322114546 291.34676023483627 337.9487560036532 289.9530479159963 339.8445674320507 289.3382933541192 C 341.7403788604483 288.723538792242 343.808349647409 288.946035754215 345.53000000000003 289.95 C 348.6644422858051 291.8877296412765 349.833245096932 295.8771857309162 348.24 299.2 C 342.71 311.37 326.4 331.66 300.61 331.66 Z" stroke-linecap="round" />
</g>
</svg>